<svg width="680" height="620" viewBox="0 0 680 620" xmlns="http://www.w3.org/2000/svg" font-family="-apple-system, BlinkMacSystemFont, 'Segoe UI', Roboto, sans-serif">
<style>
.t { font-size: 14px; fill: #2C2C2A; }
.th { font-size: 14px; font-weight: 500; fill: #2C2C2A; }
.ts { font-size: 12px; fill: #5F5E5A; }
.purple { fill: #EEEDFE; stroke: #534AB7; }
.purpleT { fill: #3C3489; }
.purpleTs { fill: #534AB7; }
.blue { fill: #E6F1FB; stroke: #185FA5; }
.blueT { fill: #0C447C; }
.blueTs { fill: #185FA5; }
.amber { fill: #FAEEDA; stroke: #854F0B; }
.amberT { fill: #633806; }
.amberTs { fill: #854F0B; }
.teal { fill: #E1F5EE; stroke: #0F6E56; }
.tealT { fill: #085041; }
.tealTs { fill: #0F6E56; }
.green { fill: #EAF3DE; stroke: #3B6D11; }
.greenT { fill: #27500A; }
.greenTs { fill: #3B6D11; }
.gray { fill: #F1EFE8; stroke: #5F5E5A; }
.grayT { fill: #2C2C2A; }
.grayTs { fill: #5F5E5A; }
.red { fill: #FCEBEB; stroke: #A32D2D; }
.redTs { fill: #791F1F; }
.container { fill: none; stroke: #B4B2A9; }
.arr { stroke: #5F5E5A; stroke-width: 1.5; fill: none; }
</style>
<defs>
<marker id="arrow" viewBox="0 0 10 10" refX="8" refY="5" markerWidth="6" markerHeight="6" orient="auto-start-reverse"><path d="M2 1L8 5L2 9" fill="none" stroke="#5F5E5A" stroke-width="1.5" stroke-linecap="round" stroke-linejoin="round"/></marker>
</defs>

<text class="th" x="40" y="30">ci-host · 192.168.56.10 (control plane)</text>

<rect class="purple" x="40" y="44" width="130" height="48" rx="8" stroke-width="0.5"/>
<text class="th purpleT" x="105" y="68" text-anchor="middle">Gitea</text>
<text class="ts purpleTs" x="105" y="84" text-anchor="middle">git server :3000</text>

<rect class="purple" x="186" y="44" width="130" height="48" rx="8" stroke-width="0.5"/>
<text class="th purpleT" x="251" y="68" text-anchor="middle">Jenkins</text>
<text class="ts purpleTs" x="251" y="84" text-anchor="middle">CI/CD :8080</text>

<rect class="blue" x="40" y="108" width="130" height="48" rx="8" stroke-width="0.5"/>
<text class="th blueT" x="105" y="132" text-anchor="middle">Prometheus</text>
<text class="ts blueTs" x="105" y="148" text-anchor="middle">metrics :9090</text>

<rect class="blue" x="186" y="108" width="130" height="48" rx="8" stroke-width="0.5"/>
<text class="th blueT" x="251" y="132" text-anchor="middle">Blackbox exp.</text>
<text class="ts blueTs" x="251" y="148" text-anchor="middle">probing :9115</text>

<rect class="blue" x="332" y="108" width="130" height="48" rx="8" stroke-width="0.5"/>
<text class="th blueT" x="397" y="132" text-anchor="middle">Grafana</text>
<text class="ts blueTs" x="397" y="148" text-anchor="middle">dashboards :3001</text>

<rect class="amber" x="40" y="172" width="130" height="48" rx="8" stroke-width="0.5"/>
<text class="th amberT" x="105" y="196" text-anchor="middle">Alertmanager</text>
<text class="ts amberTs" x="105" y="212" text-anchor="middle">alerts :9093</text>

<rect class="teal" x="186" y="172" width="130" height="48" rx="8" stroke-width="0.5"/>
<text class="th tealT" x="251" y="196" text-anchor="middle">Loki</text>
<text class="ts tealTs" x="251" y="212" text-anchor="middle">logs :3100</text>

<rect class="container" x="24" y="20" width="456" height="216" rx="14" stroke-width="0.5"/>

<text class="th" x="40" y="300">app-node · 192.168.56.11 (production)</text>

<rect class="green" x="40" y="314" width="140" height="48" rx="8" stroke-width="0.5"/>
<text class="th greenT" x="110" y="338" text-anchor="middle">webapp.sh</text>
<text class="ts greenTs" x="110" y="354" text-anchor="middle">systemd svc :8000</text>

<rect class="blue" x="196" y="314" width="140" height="48" rx="8" stroke-width="0.5"/>
<text class="th blueT" x="266" y="338" text-anchor="middle">node_exporter</text>
<text class="ts blueTs" x="266" y="354" text-anchor="middle">CPU/RAM :9100</text>

<rect class="teal" x="352" y="314" width="140" height="48" rx="8" stroke-width="0.5"/>
<text class="th tealT" x="422" y="338" text-anchor="middle">Promtail</text>
<text class="ts tealTs" x="422" y="354" text-anchor="middle">log shipper :9080</text>

<rect class="container" x="24" y="290" width="484" height="86" rx="14" stroke-width="0.5"/>

<text class="th" x="40" y="430">Deployment flow</text>

<rect class="gray" x="40" y="444" width="120" height="44" rx="8" stroke-width="0.5"/>
<text class="th grayT" x="100" y="470" text-anchor="middle">git push</text>

<rect class="gray" x="190" y="444" width="120" height="44" rx="8" stroke-width="0.5"/>
<text class="th grayT" x="250" y="470" text-anchor="middle">Jenkins</text>

<rect class="gray" x="340" y="444" width="120" height="44" rx="8" stroke-width="0.5"/>
<text class="th grayT" x="400" y="464" text-anchor="middle">deploy.sh</text>
<text class="ts grayTs" x="400" y="480" text-anchor="middle">scp + ssh</text>

<rect class="gray" x="490" y="444" width="130" height="44" rx="8" stroke-width="0.5"/>
<text class="th grayT" x="555" y="464" text-anchor="middle">install.sh</text>
<text class="ts grayTs" x="555" y="480" text-anchor="middle">on app-node</text>

<line x1="160" y1="466" x2="186" y2="466" class="arr" marker-end="url(#arrow)"/>
<line x1="310" y1="466" x2="336" y2="466" class="arr" marker-end="url(#arrow)"/>
<line x1="460" y1="466" x2="486" y2="466" class="arr" marker-end="url(#arrow)"/>

<text class="th" x="40" y="524">install.sh: backup → install → restart → health check → rollback on failure</text>

<rect class="green" x="40" y="538" width="104" height="40" rx="8" stroke-width="0.5"/>
<text class="ts greenTs" x="92" y="562" text-anchor="middle">backup</text>
<rect class="green" x="156" y="538" width="104" height="40" rx="8" stroke-width="0.5"/>
<text class="ts greenTs" x="208" y="562" text-anchor="middle">install</text>
<rect class="green" x="272" y="538" width="104" height="40" rx="8" stroke-width="0.5"/>
<text class="ts greenTs" x="324" y="562" text-anchor="middle">restart</text>
<rect class="amber" x="388" y="538" width="104" height="40" rx="8" stroke-width="0.5"/>
<text class="ts amberTs" x="440" y="562" text-anchor="middle">health check</text>
<rect class="red" x="504" y="538" width="116" height="40" rx="8" stroke-width="0.5"/>
<text class="ts redTs" x="562" y="562" text-anchor="middle">rollback</text>

<line x1="144" y1="558" x2="154" y2="558" class="arr" marker-end="url(#arrow)"/>
<line x1="260" y1="558" x2="270" y2="558" class="arr" marker-end="url(#arrow)"/>
<line x1="376" y1="558" x2="386" y2="558" class="arr" marker-end="url(#arrow)"/>
<line x1="492" y1="558" x2="502" y2="558" class="arr" marker-end="url(#arrow)"/>
</svg>
